<svg xmlns="http://www.w3.org/2000/svg"  viewBox="0 0 72 72" width="64px" height="64px"><path d="M 32.787109 12 C 31.326109 12 30.078078 13.051234 29.830078 14.490234 L 29.373047 17.148438 C 28.682047 17.391437 28.011422 17.670375 27.357422 17.984375 L 25.152344 16.427734 C 24.148344 15.691734 22.428781 15.604812 21.300781 16.757812 L 16.757812 21.300781 C 15.724813 22.333781 15.584734 23.959344 16.427734 25.152344 L 17.984375 27.357422 C 17.670375 28.011422 17.391437 28.682047 17.148438 29.373047 L 14.490234 29.830078 C 13.051234 30.078078 12 31.326109 12 32.787109 L 12 39.212891 C 12 40.673891 13.051234 41.921922 14.490234 42.169922 L 17.148438 42.626953 C 17.391437 43.317953 17.670375 43.988578 17.984375 44.642578 L 16.427734 46.847656 C 15.584734 48.040656 15.724813 49.666219 16.757812 50.699219 L 21.300781 55.242188 C 22.520781 56.462187 24.232344 56.259266 25.152344 55.572266 L 27.357422 54.015625 C 28.011422 54.329625 28.682047 54.608562 29.373047 54.851562 L 29.830078 57.509766 C 30.078078 58.948766 31.326109 60 32.787109 60 L 39.212891 60 C 40.673891 60 41.921922 58.948766 42.169922 57.509766 L 42.626953 54.851562 C 43.317953 54.608563 43.988578 54.329625 44.642578 54.015625 L 46.847656 55.572266 C 47.897656 56.281266 49.383219 56.440188 50.699219 55.242188 L 55.242188 50.699219 C 56.275187 49.666219 56.415266 48.040656 55.572266 46.847656 L 54.015625 44.642578 C 54.329625 43.988578 54.608562 43.317953 54.851562 42.626953 L 57.509766 42.169922 C 58.948766 41.921922 60 40.673891 60 39.212891 L 60 32.787109 C 60 31.326109 58.948766 30.078078 57.509766 29.830078 L 54.851562 29.373047 C 54.608563 28.682047 54.329625 28.011422 54.015625 27.357422 L 55.572266 25.152344 C 56.415266 23.959344 56.275188 22.333781 55.242188 21.300781 L 50.699219 16.757812 C 49.609219 15.683813 47.994656 15.611734 46.847656 16.427734 L 44.642578 17.984375 C 43.988578 17.670375 43.317953 17.391437 42.626953 17.148438 L 42.169922 14.490234 C 41.921922 13.051234 40.673891 12 39.212891 12 L 32.787109 12 z M 35.460938 18 L 36.541016 18 C 36.624016 18 36.696937 18.059578 36.710938 18.142578 L 37.310547 21.638672 C 39.992547 22.480672 42.628656 23.581875 45.222656 24.921875 L 48.125 22.871094 C 48.194 22.823094 48.286703 22.831625 48.345703 22.890625 L 49.109375 23.654297 C 49.168375 23.713297 49.176906 23.808953 49.128906 23.876953 L 47.078125 26.777344 C 48.362125 29.170344 49.454375 31.809453 50.359375 34.689453 L 53.857422 35.291016 C 53.940422 35.305016 54 35.376937 54 35.460938 L 54 36.541016 C 54 36.624016 53.939469 36.696938 53.855469 36.710938 L 50.359375 37.3125 C 49.532375 39.9785 48.429125 42.613656 47.078125 45.222656 L 49.128906 48.125 C 49.176906 48.194 49.168375 48.286703 49.109375 48.345703 L 48.345703 49.109375 C 48.286703 49.168375 48.191047 49.176906 48.123047 49.128906 L 45.222656 47.078125 C 42.732656 48.416125 40.098547 49.518328 37.310547 50.361328 L 36.708984 53.857422 C 36.694984 53.940422 36.623063 54 36.539062 54 L 35.458984 54 C 35.375984 54 35.303063 53.939469 35.289062 53.855469 L 34.6875 50.359375 C 31.9425 49.519375 29.304344 48.432125 26.777344 47.078125 L 23.875 49.128906 C 23.806 49.176906 23.713297 49.168375 23.654297 49.109375 L 22.890625 48.345703 C 22.831625 48.286703 22.823094 48.191047 22.871094 48.123047 L 24.921875 45.222656 C 23.589875 42.728656 22.478625 40.101547 21.640625 37.310547 L 18.142578 36.708984 C 18.059578 36.694984 18 36.623063 18 36.539062 L 18 35.458984 C 18 35.375984 18.059578 35.304016 18.142578 35.291016 L 21.640625 34.689453 C 22.492625 31.894453 23.590875 29.258344 24.921875 26.777344 L 22.871094 23.876953 C 22.823094 23.807953 22.831625 23.713297 22.890625 23.654297 L 23.654297 22.890625 C 23.713297 22.831625 23.807 22.823094 23.875 22.871094 L 26.777344 24.921875 C 29.276344 23.573875 31.917453 22.483672 34.689453 21.638672 L 35.291016 18.142578 C 35.305016 18.059578 35.376937 18 35.460938 18 z M 36 26 C 30.477 26 26 30.477 26 36 C 26 41.523 30.477 46 36 46 C 41.523 46 46 41.523 46 36 C 46 30.477 41.523 26 36 26 z M 36 32 C 38.209 32 40 33.791 40 36 C 40 38.209 38.209 40 36 40 C 33.791 40 32 38.209 32 36 C 32 33.791 33.791 32 36 32 z"/></svg>